<svg width="120" height="40" viewBox="0 0 120 40" fill="none" xmlns="http://www.w3.org/2000/svg">
  <path d="M19.7 28.3C19.7 30.5 17.9 32.2 15.8 32.2C13.6 32.2 11.8 30.5 11.8 28.3V15H19.7V28.3ZM15.8 12.3C13.6 12.3 11.8 10.6 11.8 8.4C11.8 6.2 13.6 4.5 15.8 4.5C17.9 4.5 19.7 6.2 19.7 8.4C19.7 10.6 17.9 12.3 15.8 12.3ZM41.8 15L35.2 30.8L32.7 25L36.8 15H28.4L32.6 25L28.1 35.8H36.5L43.1 20L47.2 29.9H55.5L41.8 15ZM68.6 15H52.5V18.1H60.7L52.5 28.9V32H69.1V28.9H60.5L68.6 18.2V15ZM82.1 11.6C79.9 11.6 78.1 13.4 78.1 15.5C78.1 17.7 79.9 19.4 82.1 19.4C84.2 19.4 86 17.7 86 15.5C86 13.4 84.2 11.6 82.1 11.6ZM82.1 32.2C84.2 32.2 86 30.5 86 28.3V15H78.1V28.3C78.1 30.5 79.9 32.2 82.1 32.2ZM103.5 32.2C98.4 32.2 94.2 28.1 94.2 23.1C94.2 18 98.4 13.9 103.5 13.9C108.5 13.9 112.7 18 112.7 23.1C112.7 28.1 108.5 32.2 103.5 32.2ZM103.5 17.2C100.2 17.2 97.6 19.8 97.6 23.1C97.6 26.3 100.2 29 103.5 29C106.7 29 109.4 26.3 109.4 23.1C109.4 19.8 106.7 17.2 103.5 17.2Z" fill="white"/>
</svg>
